<svg width="500" height="500" viewBox="0 0 500 500" fill="none" xmlns="http://www.w3.org/2000/svg">
<rect width="500" height="500" fill="#FEFDFB"/>
<path d="M189.907 122.177C196.456 121.641 201.183 123.152 205.035 127.011C206.523 128.501 206.892 129.009 207.743 130.732C208.968 133.211 209.619 135.811 209.883 139.269C210.269 144.329 209.527 148.889 207.295 155.15C206.81 156.508 205.617 159.928 204.644 162.75C203.67 165.571 201.888 170.66 200.682 174.056C196.286 186.437 193.478 195.838 191.343 205.314C186.427 227.137 184.645 242.765 184.092 268.876C183.895 278.139 183.032 292.602 181.897 305.644C180.477 321.955 178.453 331.985 174.507 342.277C172.122 348.498 168.463 355.418 165.72 358.896C165.407 359.292 165.095 359.688 164.782 360.084L162.021 363.077C159.012 366.336 157.143 368.11 154.908 369.821C154.114 370.43 153.484 370.968 153.556 371.105C149.471 374.065 144.164 376.441 139.476 377.404C137.07 377.899 131.043 378.095 128.578 377.759C120.363 376.641 112.638 372.752 106.875 366.835C104.239 364.127 101.715 360.653 99.4512 356.613C95.2979 349.2 92.626 340.208 91.4493 329.681C90.2067 318.56 90.2988 310.273 91.8135 296.856V296.854C91.908 296.015 92.0025 295.176 92.0977 294.338C92.131 294.1 92.165 293.862 92.1983 293.625C92.2402 293.331 92.4894 291.56 92.8086 289.294L93.1553 286.833C95.5231 270.018 98.4213 256.115 102.465 242.178C105.929 230.242 108.816 222.064 113.62 210.587C116.218 204.381 116.583 203.542 119.975 196.004C122.55 190.28 129.008 178.026 132.356 172.512C140.438 159.197 149.821 147.278 159.278 138.315C160.997 136.686 162.725 135.041 163.831 133.963C170.187 129.073 172.916 127.264 176.44 125.605C180.429 123.728 184.916 122.586 189.907 122.177Z" fill="#11100E"/>
<path d="M217.237 222.606C217.67 210.017 220.236 197.235 224.222 187.808C226.675 182.008 230.804 176.504 234.882 173.6C236.584 172.388 239.102 171.143 240.893 170.629C242.822 170.075 246.727 169.915 248.602 170.314C254.075 171.476 259.116 175.486 263.124 181.864C265.21 185.182 267.785 191.374 269.237 196.563C272.12 206.869 273.208 216.047 272.991 228.261C272.876 234.731 272.572 238.138 271.628 243.532C269.567 255.3 265.248 266.007 260.123 272.053C257.205 275.494 252.845 278.22 248.933 279.048C247.214 279.412 243.712 279.401 241.884 279.026C233.026 277.208 225.871 269.045 221.498 255.764C218.35 246.205 216.832 234.394 217.237 222.606ZM265.687 229.542C265.408 226.943 264.462 223.397 263.587 221.666C262.858 220.228 261.247 218.656 259.866 218.035C258.923 217.612 258.393 217.502 257.244 217.492C255.949 217.48 255.658 217.551 254.357 218.193C251.33 219.687 249.424 222.933 248.213 228.66C247.525 231.916 247.281 234.6 247.286 238.853C247.294 244.802 248.039 248.748 249.868 252.523C251.009 254.876 252.427 256.441 254.122 257.216C255.035 257.634 255.39 257.693 256.556 257.625C258.349 257.522 259.513 256.957 260.967 255.486C263.435 252.987 264.964 248.329 265.615 241.323C265.802 239.309 265.852 231.083 265.687 229.542Z" fill="#11100E"/>
<path d="M292.267 222.131C292.698 215.424 292.932 212.824 293.421 209.352C293.544 208.482 293.667 207.61 293.789 206.739C294.005 205.707 294.219 204.674 294.434 203.641C296.274 194.806 299.385 186.871 303.874 179.567C308.825 172.827 313.303 169.864 319.001 169.559C323.898 169.297 328.887 171.438 332.986 175.563C336.6 179.198 339.567 184.733 342.099 192.564C345.296 202.45 346.799 211.765 347.007 222.986C347.212 234.045 346.371 242.004 344.012 251.298C341.298 261.996 338.401 268.129 333.886 272.737C330.936 275.749 327.381 278.019 324.138 278.962C322.09 279.558 318.711 279.654 316.431 279.181C311.02 278.059 306.087 274.295 302.301 268.4C296.674 259.638 292.996 244.472 292.451 227.784C292.39 225.9 292.329 224.015 292.267 222.131ZM339.253 230.397C338.961 226.663 338.06 223.41 336.769 221.432C335.411 219.35 333.75 218.181 331.581 217.78C328.223 217.16 324.754 219.858 322.872 224.55C320.201 231.21 319.916 242.986 322.25 250.198C323.369 253.657 324.916 255.991 326.97 257.316C328.445 258.269 329.279 258.489 330.43 258.232C334.782 257.258 337.171 253.282 338.591 244.648C339.421 239.607 339.626 235.178 339.253 230.397Z" fill="#11100E"/>
<path d="M329.181 301.749C329.371 300.735 329.561 299.721 329.751 298.708C329.789 298.571 329.827 298.433 329.864 298.296C330.376 296.422 331.631 293.046 332.349 291.614C334.254 287.813 336.034 285.498 341.358 279.896C348.352 274.283 353.669 271.546 360.956 269.806C367.712 268.194 377.127 268.077 383.137 269.53C390.956 271.421 397.792 275.254 402.069 280.149C406.301 284.992 408.609 290.364 409.302 296.987C409.714 300.924 408.919 306.222 407.264 310.555C406.415 312.779 404.512 316.421 403.479 317.8C399.332 323.337 392.6 328.402 385.445 331.368C382.213 332.708 377.904 333.914 375.193 334.237C374.389 334.333 373.575 334.495 373.385 334.596C372.733 334.943 368.663 335.277 365.333 335.256C353.685 335.185 343.395 331.089 336.569 323.806C331.924 318.85 329.454 312.41 329.257 304.741C329.232 303.744 329.206 302.746 329.181 301.749Z" fill="#11100E"/>
<path d="M265.687 229.542C265.852 231.083 265.802 239.309 265.615 241.323C264.964 248.329 263.436 252.987 260.967 255.486C259.514 256.957 258.35 257.522 256.557 257.625C255.39 257.693 255.035 257.634 254.122 257.216C252.427 256.441 251.009 254.876 249.868 252.523C248.039 248.748 247.294 244.802 247.286 238.853C247.281 234.6 247.525 231.916 248.214 228.66C249.424 222.933 251.33 219.687 254.357 218.193C255.658 217.551 255.949 217.48 257.244 217.492C258.393 217.502 258.923 217.612 259.866 218.035C261.248 218.656 262.858 220.228 263.587 221.666C264.462 223.397 265.408 226.943 265.687 229.542Z" fill="#FEFDFB"/>
<path d="M339.253 230.397C339.626 235.178 339.421 239.607 338.591 244.648C337.171 253.282 334.782 257.258 330.43 258.232C329.279 258.489 328.445 258.269 326.97 257.316C324.917 255.991 323.369 253.657 322.25 250.198C319.916 242.986 320.201 231.21 322.872 224.55C324.754 219.858 328.223 217.16 331.581 217.78C333.75 218.181 335.411 219.35 336.769 221.432C338.06 223.41 338.961 226.663 339.253 230.397Z" fill="#FEFDFB"/>
</svg>
